<svg width="1440" height="916" viewBox="0 0 1440 916" fill="none" xmlns="http://www.w3.org/2000/svg">
<g clip-path="url(#clip0_79_639)">
<rect width="1440" height="916" fill="#AA4D18"/>
<g opacity="0.07" style="mix-blend-mode:hard-light">
<path d="M-125 987.101V443.262C-125 381.544 -74.9678 331.512 -13.25 331.512C48.4678 331.512 98.5 381.544 98.5 443.262V670.594C98.5 764.012 174.23 839.741 267.647 839.741H353.165C399.353 839.741 436.795 877.184 436.795 923.371C436.795 969.558 474.237 1007 520.424 1007H944.224C1017.68 1007 1077.22 947.216 1077.22 873.762C1077.22 800.571 1136.56 741 1209.75 741H1226.48C1290.43 741 1342.27 792.841 1342.27 856.79V876.718C1342.27 929.661 1385.19 972.58 1438.14 972.58C1491.08 972.58 1534 929.661 1534 876.718V461.068C1534 371.149 1461.11 298.255 1371.19 298.255C1281.27 298.255 1208.37 225.361 1208.37 135.442V-191" stroke="white" stroke-width="100"/>
</g>
</g>
<defs>
<clipPath id="clip0_79_639">
<rect width="1440" height="916" fill="white"/>
</clipPath>
</defs>
</svg>
